<svg width="28" height="27" viewBox="0 0 28 27" fill="none" xmlns="http://www.w3.org/2000/svg">
<path fill-rule="evenodd" clip-rule="evenodd" d="M3.48398 17.2127V17.0028C3.51595 16.3819 3.7226 15.7803 4.08261 15.2601C4.68187 14.6351 5.09208 13.8692 5.27024 13.0428C5.27024 12.4041 5.27023 11.7563 5.32817 11.1176C5.62749 8.04267 8.78482 5.91669 11.9035 5.91669H11.9808C15.0995 5.91669 18.2568 8.04267 18.5658 11.1176C18.6237 11.7563 18.5658 12.4041 18.6141 13.0428C18.7946 13.8711 19.2044 14.6394 19.8017 15.2692C20.1644 15.7848 20.3714 16.3842 20.4003 17.0028V17.2036C20.4219 18.0377 20.1235 18.8511 19.5603 19.4938C18.816 20.2452 17.8061 20.7127 16.7216 20.8077C13.5416 21.1362 10.3331 21.1362 7.15305 20.8077C6.0698 20.7086 5.06129 20.2418 4.31434 19.4938C3.75982 18.8506 3.46548 18.0421 3.48398 17.2127Z" stroke="#191D23" stroke-width="1.5" stroke-linecap="round" stroke-linejoin="round"/>
<path d="M9.50903 23.983C10.0059 24.5836 10.7356 24.9723 11.5365 25.063C12.3375 25.1538 13.1437 24.9392 13.7767 24.4666C13.9714 24.3269 14.1466 24.1644 14.2981 23.983" stroke="#191D23" stroke-width="1.5" stroke-linecap="round" stroke-linejoin="round"/>
<path d="M20.2499 14.5C24.236 14.5 27.4999 11.3836 27.4999 7.5C27.4999 3.61639 24.236 0.5 20.2499 0.5C16.2638 0.5 12.9999 3.61639 12.9999 7.5C12.9999 11.3836 16.2638 14.5 20.2499 14.5Z" fill="#D4351C" stroke="white"/>
<path d="M18.2577 5.34375C18.3775 4.82812 18.6014 4.42188 18.9296 4.125C19.2577 3.82812 19.6874 3.67969 20.2186 3.67969C20.7759 3.67969 21.2316 3.84115 21.5858 4.16406C21.94 4.48177 22.1171 4.91406 22.1171 5.46094C22.1171 5.8151 22.0363 6.13802 21.8749 6.42969C21.7134 6.71615 21.479 7.00521 21.1718 7.29688C21.1145 7.35417 20.966 7.5 20.7264 7.73438C20.4869 7.96875 20.3228 8.13281 20.2343 8.22656C20.1509 8.3151 20.0389 8.45052 19.8983 8.63281C19.7629 8.8099 19.6535 8.98438 19.5702 9.15625H22.1014V10H18.3202C18.3202 9.75521 18.3593 9.51042 18.4374 9.26562C18.5207 9.01562 18.6145 8.79948 18.7186 8.61719C18.828 8.4349 18.9816 8.22917 19.1796 8C19.3827 7.76562 19.5494 7.58333 19.6796 7.45312C19.815 7.32292 20.0025 7.14323 20.2421 6.91406C20.2994 6.86198 20.341 6.82292 20.3671 6.79688C20.8254 6.35938 21.0546 5.90625 21.0546 5.4375C21.0546 5.15104 20.9764 4.92708 20.8202 4.76562C20.6639 4.60417 20.4582 4.52344 20.203 4.52344C19.6561 4.52344 19.2994 4.88281 19.1327 5.60156L18.2577 5.34375Z" fill="white"/>
</svg>
