<svg width="11" height="13" viewBox="0 0 11 13" fill="none" xmlns="http://www.w3.org/2000/svg">
<path d="M1.25033 11.4583C1.25033 12.2375 1.88783 12.875 2.66699 12.875H8.33366C9.11283 12.875 9.75033 12.2375 9.75033 11.4583V4.375C9.75033 3.59583 9.11283 2.95833 8.33366 2.95833H2.66699C1.88783 2.95833 1.25033 3.59583 1.25033 4.375V11.4583ZM3.37533 4.375H7.62533C8.01491 4.375 8.33366 4.69375 8.33366 5.08333V10.75C8.33366 11.1396 8.01491 11.4583 7.62533 11.4583H3.37533C2.98574 11.4583 2.66699 11.1396 2.66699 10.75V5.08333C2.66699 4.69375 2.98574 4.375 3.37533 4.375ZM7.97949 0.833333L7.47658 0.330417C7.34908 0.202917 7.16491 0.125 6.98074 0.125H4.01991C3.83574 0.125 3.65158 0.202917 3.52408 0.330417L3.02116 0.833333H1.25033C0.860742 0.833333 0.541992 1.15208 0.541992 1.54167C0.541992 1.93125 0.860742 2.25 1.25033 2.25H9.75033C10.1399 2.25 10.4587 1.93125 10.4587 1.54167C10.4587 1.15208 10.1399 0.833333 9.75033 0.833333H7.97949Z" fill="#D4351C"/>
</svg>
