<svg width="27" height="27" viewBox="0 0 27 27" fill="none" xmlns="http://www.w3.org/2000/svg">
<g clip-path="url(#clip0_31_9021)">
<path d="M8.25 12.375L7.5 14.7H9L8.25 12.375Z" fill="#191D23"/>
<path d="M22.725 1.79995H12.725C11.6204 1.79995 10.725 2.69539 10.725 3.79995V7.04995H13.725H3.97498C2.69998 7.04995 1.72498 8.02495 1.72498 9.29995V17.55C1.72498 18.825 2.69998 19.8 3.97498 19.8H4.72498V23.625L9.44998 19.8H12.475C13.5795 19.8 14.475 18.9045 14.475 17.8V14.55H22.725C24 14.55 24.975 13.575 24.975 12.3V4.04995C24.975 2.77495 24 1.79995 22.725 1.79995ZM9.82498 16.725L9.44998 15.525H7.12498L6.67497 16.725H4.87498L7.34998 10.05H9.14997L11.625 16.725H9.82498ZM21.225 10.8V12.3C20.25 12.3 19.2 12 18.3 11.55C17.4 12 16.35 12.225 15.3 12.3L15.225 10.8C15.75 10.8 16.275 10.725 16.8 10.575C16.125 9.89995 15.675 9.07495 15.45 8.17495H17.025C17.25 8.84996 17.7 9.37495 18.225 9.82495C19.05 9.14995 19.575 8.17495 19.65 7.04995H15.15V5.54995H17.4V4.04995H18.9V5.54995H21.375L21.45 6.29995C21.525 7.87495 20.925 9.44995 19.8 10.575C20.325 10.725 20.775 10.8 21.225 10.8Z" fill="#191D23"/>
</g>
<defs>
<clipPath id="clip0_31_9021">
<rect width="27" height="27" fill="white"/>
</clipPath>
</defs>
</svg>
