<svg width="20" height="20" viewBox="0 0 20 20" fill="none" xmlns="http://www.w3.org/2000/svg">
<path d="M9.9999 12.5C11.3832 12.5 12.4916 11.3833 12.4916 10L12.4999 5C12.4999 3.61667 11.3832 2.5 9.9999 2.5C8.61657 2.5 7.4999 3.61667 7.4999 5V10C7.4999 11.3833 8.61657 12.5 9.9999 12.5ZM15.0666 10C14.7166 10 14.4249 10.25 14.3749 10.5917C14.0666 12.7667 12.1082 14.25 9.9999 14.25C7.89157 14.25 5.93324 12.775 5.6249 10.5917C5.5749 10.25 5.2749 10 4.93324 10C4.4999 10 4.16657 10.3833 4.2249 10.8083C4.60824 13.2833 6.69157 15.225 9.16657 15.6V17.5C9.16657 17.9583 9.54157 18.3333 9.9999 18.3333C10.4582 18.3333 10.8332 17.9583 10.8332 17.5V15.6C13.2999 15.2417 15.3916 13.2833 15.7749 10.8083C15.8332 10.3833 15.4999 10 15.0666 10Z" fill="#003078"/>
</svg>
