<svg width="20" height="20" viewBox="0 0 20 20" fill="none" xmlns="http://www.w3.org/2000/svg">
<g clip-path="url(#clip0_67_1612)">
<path d="M18.75 18.1249V8.2268C18.75 7.48118 18.1437 6.87493 17.3981 6.87493H13.75V2.33493C13.75 2.28118 13.7381 1.60555 13.1506 1.2118C12.5631 0.818678 11.9338 1.06493 11.8837 1.08493L2.71188 4.8618C2.20375 5.07118 1.875 5.56118 1.875 6.1118V18.1249H1.25C0.905 18.1249 0.625 18.4049 0.625 18.7499C0.625 19.0949 0.905 19.3749 1.25 19.3749H2.5H13.125H18.125H18.75C19.095 19.3749 19.375 19.0949 19.375 18.7499C19.375 18.4049 19.095 18.1249 18.75 18.1249ZM3.125 6.1118C3.125 6.07055 3.15 6.03368 3.18812 6.01805L12.36 2.2418C12.3944 2.22805 12.4256 2.23118 12.455 2.25118C12.485 2.27055 12.5 2.29868 12.5 2.33493V7.49993V18.1249H3.125V6.1118ZM13.75 18.1249V8.12493H17.3981C17.4544 8.12493 17.5 8.17055 17.5 8.2268V18.1249H13.75Z" fill="#383F43"/>
<path d="M9.375 15H6.25C5.905 15 5.625 15.28 5.625 15.625C5.625 15.97 5.905 16.25 6.25 16.25H9.375C9.72 16.25 10 15.97 10 15.625C10 15.28 9.72 15 9.375 15Z" fill="#383F43"/>
<path d="M9.375 12.5H6.25C5.905 12.5 5.625 12.78 5.625 13.125C5.625 13.47 5.905 13.75 6.25 13.75H9.375C9.72 13.75 10 13.47 10 13.125C10 12.78 9.72 12.5 9.375 12.5Z" fill="#383F43"/>
<path d="M9.375 10H6.25C5.905 10 5.625 10.28 5.625 10.625C5.625 10.97 5.905 11.25 6.25 11.25H9.375C9.72 11.25 10 10.97 10 10.625C10 10.28 9.72 10 9.375 10Z" fill="#383F43"/>
<path d="M9.375 7.5H6.25C5.905 7.5 5.625 7.78 5.625 8.125C5.625 8.47 5.905 8.75 6.25 8.75H9.375C9.72 8.75 10 8.47 10 8.125C10 7.78 9.72 7.5 9.375 7.5Z" fill="#383F43"/>
</g>
<defs>
<clipPath id="clip0_67_1612">
<rect width="20" height="20" fill="white"/>
</clipPath>
</defs>
</svg>
