<svg width="40" height="40" viewBox="0 0 40 40" fill="none" xmlns="http://www.w3.org/2000/svg">
<path d="M33.3874 6.34375V33.6562C33.3874 33.9878 33.2557 34.3057 33.0213 34.5401C32.7869 34.7746 32.4689 34.9062 32.1374 34.9062H12.5874C12.2559 34.9062 11.9379 34.7746 11.7035 34.5401C11.4691 34.3057 11.3374 33.9878 11.3374 33.6562V14.4313L18.2124 5.09375H32.1374C32.4689 5.09375 32.7869 5.22545 33.0213 5.45987C33.2557 5.69429 33.3874 6.01223 33.3874 6.34375Z" fill="#EDEEEF"/>
<path d="M18.2124 5.1062V13.125C18.2124 13.4565 18.0807 13.7744 17.8463 14.0088C17.6119 14.2433 17.2939 14.375 16.9624 14.375H11.3687L18.2124 5.1062Z" fill="#CFD0D1"/>
<path d="M24.9375 22.1687H7.86255C7.17219 22.1687 6.61255 22.7283 6.61255 23.4187V29.6937C6.61255 30.3841 7.17219 30.9437 7.86255 30.9437H24.9375C25.6279 30.9437 26.1875 30.3841 26.1875 29.6937V23.4187C26.1875 22.7283 25.6279 22.1687 24.9375 22.1687Z" fill="#FF3717"/>
<path d="M12.9625 27.0625V28.4125H11.875V24.7063H13.375C13.667 24.6905 13.9589 24.7374 14.2313 24.8438C14.4251 24.9316 14.5883 25.0752 14.7 25.2563C14.813 25.445 14.8715 25.6614 14.8688 25.8813C14.8761 26.0409 14.8486 26.2001 14.7881 26.348C14.7277 26.4959 14.6358 26.6288 14.5187 26.7375C14.2582 26.9642 13.9198 27.0807 13.575 27.0625H12.9625ZM12.9625 26.2688H13.325C13.6437 26.2688 13.8 26.1438 13.8 25.9C13.8 25.6563 13.6562 25.55 13.3625 25.55H12.9625V26.2688ZM15.275 28.4125V24.7063H16.6437C16.8932 24.6875 17.1436 24.7275 17.3748 24.823C17.606 24.9185 17.8115 25.0669 17.975 25.2563C18.2695 25.6176 18.4267 26.0715 18.4188 26.5375C18.4451 27.0326 18.2743 27.518 17.9437 27.8875C17.7868 28.0616 17.5934 28.1988 17.3774 28.2896C17.1613 28.3803 16.9279 28.4223 16.6937 28.4125H15.275ZM16.3625 27.5563H16.6437C16.7373 27.5547 16.8287 27.5284 16.9088 27.4801C16.9889 27.4318 17.0549 27.3632 17.1 27.2813C17.2309 27.0561 17.2939 26.7978 17.2813 26.5375C17.2861 26.2943 17.2303 26.0537 17.1188 25.8375C17.075 25.7495 17.007 25.6758 16.923 25.6249C16.8389 25.574 16.742 25.548 16.6437 25.55H16.3625V27.5563ZM21.0875 27.025H19.9375V28.4125H18.8812V24.7063H21.4375V25.5875H19.9375V26.2125H21.0875V27.025Z" fill="#EDEEEF"/>
</svg>
