<svg width="20" height="20" viewBox="0 0 20 20" fill="none" xmlns="http://www.w3.org/2000/svg">
<path d="M10.0001 14.1667L10.8334 12.5001V8.21508C12.2676 7.84258 13.3334 6.54841 13.3334 5.00008C13.3334 3.16175 11.8384 1.66675 10.0001 1.66675C8.16175 1.66675 6.66675 3.16175 6.66675 5.00008C6.66675 6.54841 7.73258 7.84258 9.16675 8.21508V12.5001L10.0001 14.1667ZM8.33341 5.00008C8.33341 4.08091 9.08091 3.33341 10.0001 3.33341C10.9192 3.33341 11.6667 4.08091 11.6667 5.00008C11.6667 5.91925 10.9192 6.66675 10.0001 6.66675C9.08091 6.66675 8.33341 5.91925 8.33341 5.00008Z" fill="#383F43"/>
<path d="M13.5559 8.80259L13.1117 10.4093C15.2709 11.0059 16.6667 12.1534 16.6667 13.3334C16.6667 14.9101 13.9292 16.6668 10.0001 16.6668C6.07091 16.6668 3.33341 14.9101 3.33341 13.3334C3.33341 12.1534 4.72925 11.0059 6.88925 10.4084L6.44508 8.80176C3.49758 9.61676 1.66675 11.3526 1.66675 13.3334C1.66675 16.1368 5.32758 18.3334 10.0001 18.3334C14.6726 18.3334 18.3334 16.1368 18.3334 13.3334C18.3334 11.3526 16.5026 9.61676 13.5559 8.80259Z" fill="#383F43"/>
</svg>
