<svg width="24" height="24" viewBox="0 0 24 24" fill="none" xmlns="http://www.w3.org/2000/svg">
<circle cx="9.9987" cy="9.99967" r="0.666667" fill="#005A30"/>
<ellipse cx="13.9987" cy="14.6663" rx="0.666667" ry="1.33333" fill="#005A30"/>
<path d="M18 12.667C15.8667 20.667 9.55556 18.2225 6.66667 16.0003L6 18.0003C8.13333 20.1337 11.7778 20.667 13.3333 20.667C19.7333 19.6003 20.8889 14.4448 20.6667 12.0003L22 11.3337L19.3333 8.66699L16.6667 12.0003H18V12.667Z" fill="#C2D6D0"/>
<path fill-rule="evenodd" clip-rule="evenodd" d="M11.6254 3.46484C11.6254 3.25775 11.7933 3.08984 12.0004 3.08984C13.264 3.08984 14.467 3.35309 15.5569 3.82811C15.7468 3.91085 15.8336 4.13184 15.7509 4.3217C15.6682 4.51156 15.4472 4.59839 15.2573 4.51565C14.2601 4.08106 13.1589 3.83984 12.0004 3.83984C11.7933 3.83984 11.6254 3.67196 11.6254 3.46484ZM11.2502 3.48912C11.2771 3.69446 11.1325 3.88278 10.9272 3.90974C6.92804 4.43491 3.84069 7.85699 3.84069 11.9996C3.84069 12.099 3.80116 12.1944 3.73083 12.2647C3.6605 12.3351 3.56512 12.3746 3.46565 12.3746L2.84069 12.3745L4.54927 14.8912L6.44257 12.3745H5.73335C5.52624 12.3745 5.35835 12.2066 5.35835 11.9995C5.35835 8.33118 8.3321 5.35743 12.0004 5.35743C14.2796 5.35743 16.2906 6.50577 17.4863 8.25376C17.6032 8.42469 17.5594 8.65805 17.3885 8.77499C17.2175 8.89192 16.9842 8.84814 16.8672 8.67719C15.8053 7.12484 14.0216 6.10743 12.0004 6.10743C8.87229 6.10743 6.31349 8.54512 6.12009 11.6245H7.19394C7.33606 11.6245 7.466 11.7049 7.52947 11.832C7.59294 11.9592 7.57904 12.1114 7.4936 12.2249L4.83329 15.7612C4.76052 15.858 4.64553 15.9136 4.52452 15.9107C4.4035 15.9078 4.29136 15.8466 4.22335 15.7464L1.82256 12.2101C1.74456 12.0952 1.73643 11.9466 1.80145 11.8239C1.86646 11.7012 1.99396 11.6245 2.13284 11.6245L3.09843 11.6245C3.27869 7.27055 6.58332 3.72374 10.8295 3.16614C11.0349 3.13917 11.2232 3.28377 11.2502 3.48912ZM16.1437 4.52681C16.2521 4.35037 16.4831 4.29524 16.6595 4.40369C17.3566 4.83217 17.9902 5.35383 18.5428 5.95132C18.6834 6.10336 18.6742 6.34062 18.5221 6.48125C18.3701 6.62187 18.1328 6.61263 17.9922 6.46059C17.4858 5.91303 16.9053 5.43509 16.2668 5.04266C16.0904 4.93421 16.0352 4.70326 16.1437 4.52681ZM19.3914 8.09047C19.5137 8.09009 19.6284 8.14925 19.6989 8.24902L22.197 11.783C22.2778 11.8975 22.2883 12.0475 22.2238 12.1719C22.1593 12.2963 22.0309 12.3745 21.8908 12.3745L20.9023 12.3745C20.7217 16.7365 17.4055 20.2882 13.1482 20.8361C12.9428 20.8625 12.7548 20.7174 12.7284 20.5119C12.702 20.3066 12.847 20.1185 13.0525 20.0921C17.0619 19.5763 20.1602 16.1495 20.1602 11.9996C20.1602 11.7925 20.328 11.6246 20.5352 11.6246L21.1665 11.6245L19.3946 9.11797L17.6458 11.6245L18.2675 11.6245C18.3669 11.6245 18.4623 11.664 18.5326 11.7343C18.603 11.8046 18.6425 11.9 18.6425 11.9995C18.6425 15.6678 15.6687 18.6416 12.0004 18.6416C9.72224 18.6416 7.71213 17.4943 6.51624 15.7477C6.39924 15.5768 6.4429 15.3434 6.61379 15.2264C6.78468 15.1094 7.01806 15.1531 7.13508 15.3239C8.19714 16.8751 9.98011 17.8916 12.0004 17.8916C15.1285 17.8916 17.6873 15.4539 17.8807 12.3745L16.927 12.3746C16.7872 12.3746 16.6591 12.2969 16.5944 12.173C16.5298 12.0491 16.5394 11.8996 16.6194 11.785L19.0851 8.25089C19.155 8.15071 19.2694 8.09084 19.3914 8.09047ZM9.90451 9.18327C9.46981 9.18327 9.11742 9.53568 9.11742 9.97038C9.11742 10.4051 9.46981 10.7575 9.90451 10.7575C10.3392 10.7575 10.6916 10.4051 10.6916 9.97038C10.6916 9.53568 10.3392 9.18327 9.90451 9.18327ZM8.36742 9.97038C8.36742 9.12146 9.05561 8.43328 9.90451 8.43328C10.7534 8.43328 11.4416 9.12146 11.4416 9.97038C11.4416 10.8193 10.7534 11.5075 9.90451 11.5075C9.05561 11.5075 8.36742 10.8193 8.36742 9.97038ZM14.4497 8.53574C14.6188 8.65542 14.6588 8.88946 14.5391 9.05849L9.93545 15.5612C9.81579 15.7302 9.58173 15.7702 9.4127 15.6506C9.24367 15.5309 9.20366 15.2968 9.32332 15.1278L13.927 8.62512C14.0467 8.45609 14.2807 8.41608 14.4497 8.53574ZM14.034 13.5656C13.5993 13.5656 13.2469 13.918 13.2469 14.3527C13.2469 14.7874 13.5993 15.1398 14.034 15.1398C14.4687 15.1398 14.8211 14.7874 14.8211 14.3527C14.8211 13.918 14.4687 13.5656 14.034 13.5656ZM12.4969 14.3527C12.4969 13.5037 13.1851 12.8156 14.034 12.8156C14.8829 12.8156 15.5711 13.5037 15.5711 14.3527C15.5711 15.2016 14.8829 15.8898 14.034 15.8898C13.1851 15.8898 12.4969 15.2016 12.4969 14.3527ZM5.47872 17.5179C5.63077 17.3773 5.86801 17.3865 6.00866 17.5386C6.46784 18.0351 6.98791 18.4743 7.55694 18.8445C7.73054 18.9575 7.77972 19.1896 7.66677 19.3633C7.55384 19.5369 7.32155 19.5862 7.14794 19.4731C6.52674 19.0691 5.95914 18.5896 5.45804 18.0478C5.31742 17.8958 5.32668 17.6585 5.47872 17.5179ZM7.86262 19.4754C7.955 19.29 8.18015 19.2148 8.36551 19.307C9.45961 19.8525 10.6936 20.1594 12.0004 20.1594C12.2075 20.1594 12.3754 20.3272 12.3754 20.5344C12.3754 20.7414 12.2075 20.9094 12.0004 20.9094C10.5749 20.9094 9.22662 20.5743 8.03096 19.9783C7.84559 19.8858 7.77022 19.6608 7.86262 19.4754Z" fill="#003078" stroke="#003078" stroke-width="0.293333"/>
</svg>
