<svg width="20" height="20" viewBox="0 0 20 20" fill="none" xmlns="http://www.w3.org/2000/svg">
<path d="M15.6239 15.8702L13.6192 13.8726C14.706 12.53 15.2361 10.8215 15.1003 9.09957C14.9645 7.37759 14.1732 5.77336 12.8894 4.61769C11.6056 3.46201 9.92735 2.84301 8.20062 2.88831C6.47389 2.93361 4.83038 3.63977 3.60898 4.86117C2.38757 6.08257 1.68141 7.72609 1.63611 9.45282C1.59081 11.1795 2.20982 12.8578 3.36549 14.1416C4.52117 15.4254 6.12539 16.2167 7.84737 16.3525C9.56935 16.4883 11.2778 15.9582 12.6204 14.8714L14.618 16.8761C14.6838 16.9425 14.7622 16.9952 14.8485 17.0311C14.9348 17.0671 15.0274 17.0856 15.1209 17.0856C15.2144 17.0856 15.307 17.0671 15.3934 17.0311C15.4797 16.9952 15.558 16.9425 15.6239 16.8761C15.6903 16.8102 15.743 16.7319 15.7789 16.6456C15.8149 16.5592 15.8334 16.4666 15.8334 16.3731C15.8334 16.2796 15.8149 16.187 15.7789 16.1007C15.743 16.0144 15.6903 15.936 15.6239 15.8702ZM3.07861 9.6436C3.07861 8.59283 3.3902 7.56566 3.97398 6.69197C4.55776 5.81829 5.3875 5.13734 6.35829 4.73522C7.32907 4.33311 8.3973 4.2279 9.42788 4.43289C10.4585 4.63789 11.4051 5.14388 12.1481 5.88689C12.8911 6.6299 13.3971 7.57655 13.6021 8.60713C13.8071 9.63771 13.7019 10.7059 13.2998 11.6767C12.8977 12.6475 12.2167 13.4772 11.343 14.061C10.4693 14.6448 9.44217 14.9564 8.3914 14.9564C6.98236 14.9564 5.63103 14.3967 4.63469 13.4003C3.63835 12.404 3.07861 11.0526 3.07861 9.6436Z" fill="#B1B4B6"/>
</svg>
