<svg width="25" height="25" viewBox="0 0 25 25" fill="none" xmlns="http://www.w3.org/2000/svg">
<path d="M5.36768 15.7185V20.4189C5.36768 20.6608 5.46374 20.8927 5.63473 21.0637C5.80571 21.2347 6.03763 21.3307 6.27944 21.3307H18.5883C18.8301 21.3307 19.062 21.2347 19.233 21.0637C19.404 20.8927 19.5 20.6608 19.5 20.4189V8.56601H15.3971C15.1553 8.56601 14.9234 8.46994 14.7524 8.29896C14.5814 8.12797 14.4853 7.89606 14.4853 7.65424V3.5513H6.27944C6.03763 3.5513 5.80571 3.64736 5.63473 3.81835C5.46374 3.98934 5.36768 4.22125 5.36768 4.46306V10.9069" stroke="#383F43" stroke-width="1.6" stroke-linecap="round" stroke-linejoin="round"/>
<path d="M14.4854 3.5513L19.5001 8.56601L14.4854 3.5513Z" fill="#383F43"/>
<path d="M14.4854 3.5513L19.5001 8.56601" stroke="#383F43" stroke-width="1.6" stroke-linecap="round" stroke-linejoin="round"/>
<path d="M13.0706 11.4951C13.0513 11.4951 13.0326 11.4976 13.0134 11.498C12.8973 10.8215 12.5726 10.1981 12.0846 9.71532C11.5966 9.23251 10.9699 8.91439 10.2921 8.80551C9.61438 8.69663 8.91954 8.80244 8.30491 9.10812C7.69028 9.4138 7.18663 9.90404 6.86449 10.5102C6.84466 10.5098 6.82542 10.5072 6.8055 10.5072C6.06144 10.5072 5.34785 10.8028 4.82171 11.3289C4.29558 11.855 4 12.5686 4 13.3127C4 14.0568 4.29558 14.7704 4.82171 15.2965C5.34785 15.8226 6.06144 16.1182 6.8055 16.1182H13.0706C13.6837 16.1182 14.2716 15.8747 14.7051 15.4412C15.1386 15.0077 15.3821 14.4197 15.3821 13.8067C15.3821 13.1936 15.1386 12.6057 14.7051 12.1722C14.2716 11.7387 13.6837 11.4951 13.0706 11.4951Z" stroke="#383F43" stroke-width="1.6" stroke-linecap="round" stroke-linejoin="round"/>
</svg>
