<svg width="24" height="24" viewBox="0 0 24 24" fill="none" xmlns="http://www.w3.org/2000/svg">
<path d="M16.75 7.5C16.75 4.605 14.395 2.25 11.5 2.25C8.60502 2.25 6.25002 4.605 6.25002 7.5C6.25002 9.103 6.98802 10.523 8.12402 11.487C6.77202 11.822 5.53002 12.51 4.51902 13.52C3.05502 14.985 2.24902 16.931 2.24902 19C2.24902 20.517 3.48202 21.75 4.99902 21.75H11.999C12.413 21.75 12.749 21.414 12.749 21C12.749 20.586 12.413 20.25 11.999 20.25H4.99902C4.31002 20.25 3.74902 19.689 3.74902 19C3.74902 17.331 4.39902 15.761 5.57902 14.58C6.76002 13.4 8.32902 12.75 9.99902 12.75H12.679C12.936 12.75 13.151 12.613 13.286 12.416C15.299 11.681 16.75 9.765 16.75 7.5ZM11.5 11.25C9.43302 11.25 7.75002 9.568 7.75002 7.5C7.75002 5.432 9.43302 3.75 11.5 3.75C13.567 3.75 15.25 5.432 15.25 7.5C15.25 9.568 13.567 11.25 11.5 11.25Z" fill="#383F43"/>
<path d="M16.5002 22.0003C13.4674 22.0003 11 19.5323 11 16.4985C11 13.4667 13.4674 11 16.5002 11C19.5326 11 22 13.4667 22 16.4985C22 19.5323 19.533 22.0003 16.5002 22.0003ZM16.5002 12.3535C14.2138 12.3535 12.3535 14.2128 12.3535 16.4985C12.3535 18.7858 14.2138 20.6469 16.5002 20.6469C18.7865 20.6469 20.6465 18.7858 20.6465 16.4985C20.6465 14.2128 18.7865 12.3535 16.5002 12.3535Z" fill="#383F43"/>
<path d="M16.5002 22.0003C13.4674 22.0003 11 19.5323 11 16.4985C11 13.4667 13.4674 11 16.5002 11C19.5326 11 22 13.4667 22 16.4985C22 19.5323 19.533 22.0003 16.5002 22.0003ZM16.5002 12.3535C14.2138 12.3535 12.3535 14.2128 12.3535 16.4985C12.3535 18.7858 14.2138 20.6469 16.5002 20.6469C18.7865 20.6469 20.6465 18.7858 20.6465 16.4985C20.6465 14.2128 18.7865 12.3535 16.5002 12.3535Z" stroke="#383F43"/>
<path d="M14.7662 17.8667L16.5022 16.0991L18.2383 17.8667C18.4128 18.0444 18.6946 18.0444 18.8691 17.8667C19.0436 17.6891 19.0436 17.4021 18.8691 17.2244L16.8154 15.1333C16.6409 14.9556 16.3591 14.9556 16.1846 15.1333L14.1309 17.2244C13.9564 17.4021 13.9564 17.6891 14.1309 17.8667C14.3054 18.0399 14.5917 18.0444 14.7662 17.8667Z" fill="#383F43"/>
</svg>
