<svg width="41" height="40" viewBox="0 0 41 40" fill="none" xmlns="http://www.w3.org/2000/svg">
<path d="M30.1874 13.805C29.6472 11.6455 28.401 9.72832 26.6466 8.35799C24.8923 6.98765 22.7304 6.24269 20.5043 6.2414C18.2782 6.2401 16.1155 6.98255 14.3596 8.35085C12.6037 9.71915 11.3552 11.6349 10.8124 13.7938C8.25224 14.034 5.88298 15.2513 4.19681 17.1928C2.51065 19.1343 1.63718 21.6507 1.75785 24.2193C1.87852 26.7879 2.98405 29.2113 4.8448 30.9862C6.70554 32.761 9.17849 33.7508 11.7499 33.75H15.4999C15.8315 33.75 16.1494 33.6183 16.3838 33.3839C16.6183 33.1495 16.7499 32.8315 16.7499 32.5C16.7499 32.1685 16.6183 31.8506 16.3838 31.6161C16.1494 31.3817 15.8315 31.25 15.4999 31.25H11.7499C10.765 31.2529 9.7892 31.0617 8.87816 30.6875C7.96712 30.3132 7.13871 29.7632 6.44024 29.0688C5.02962 27.6664 4.23388 25.761 4.22808 23.7719C4.22227 21.7828 5.00689 19.8728 6.40931 18.4622C7.81173 17.0516 9.71708 16.2558 11.7062 16.25C12.0269 16.2742 12.3452 16.1783 12.5993 15.9811C12.8533 15.7838 13.0251 15.4992 13.0812 15.1825C13.3357 13.3976 14.2257 11.7644 15.5876 10.5829C16.9495 9.40145 18.692 8.75098 20.4949 8.75098C22.2979 8.75098 24.0404 9.40145 25.4023 10.5829C26.7642 11.7644 27.6542 13.3976 27.9087 15.1825C27.9741 15.4882 28.1435 15.7618 28.3881 15.9565C28.6328 16.1512 28.9374 16.2549 29.2499 16.25C31.2391 16.25 33.1467 17.0402 34.5532 18.4467C35.9598 19.8532 36.7499 21.7609 36.7499 23.75C36.7499 25.7391 35.9598 27.6468 34.5532 29.0533C33.1467 30.4598 31.2391 31.25 29.2499 31.25H25.4999C25.1684 31.25 24.8505 31.3817 24.6161 31.6161C24.3816 31.8506 24.2499 32.1685 24.2499 32.5C24.2499 32.8315 24.3816 33.1495 24.6161 33.3839C24.8505 33.6183 25.1684 33.75 25.4999 33.75H29.2499C31.8026 33.7233 34.2484 32.7214 36.0861 30.9495C37.9239 29.1777 39.0144 26.7701 39.1343 24.2201C39.2541 21.6701 38.3942 19.1708 36.7308 17.2344C35.0674 15.298 32.7263 14.0711 30.1874 13.805Z" fill="#383F43"/>
<path d="M25.8663 24.6337C26.102 24.8614 26.4178 24.9874 26.7455 24.9846C27.0733 24.9817 27.3868 24.8503 27.6185 24.6185C27.8503 24.3867 27.9818 24.0732 27.9846 23.7455C27.9875 23.4177 27.8615 23.102 27.6338 22.8662L21.3838 16.6162C21.1494 16.3819 20.8315 16.2502 20.5 16.2502C20.1686 16.2502 19.8507 16.3819 19.6163 16.6162L13.3663 22.8662C13.1386 23.102 13.0126 23.4177 13.0154 23.7455C13.0183 24.0732 13.1497 24.3867 13.3815 24.6185C13.6133 24.8503 13.9268 24.9817 14.2545 24.9846C14.5823 24.9874 14.898 24.8614 15.1338 24.6337L19.25 20.5175V36.25C19.25 36.5815 19.3817 36.8994 19.6161 37.1339C19.8506 37.3683 20.1685 37.5 20.5 37.5C20.8315 37.5 21.1495 37.3683 21.3839 37.1339C21.6183 36.8994 21.75 36.5815 21.75 36.25V20.5175L25.8663 24.6337Z" fill="#383F43"/>
</svg>
