<svg width="20" height="20" viewBox="0 0 20 20" fill="none" xmlns="http://www.w3.org/2000/svg">
<g clip-path="url(#clip0_67_1592)">
<path d="M17.9167 17.5H2.08333C0.935 17.5 0 16.565 0 15.4167V4.58333C0 3.435 0.935 2.5 2.08333 2.5H17.9167C19.065 2.5 20 3.435 20 4.58333V15.4167C20 16.565 19.065 17.5 17.9167 17.5ZM2.08333 3.33333C1.39417 3.33333 0.833333 3.89417 0.833333 4.58333V15.4167C0.833333 16.1058 1.39417 16.6667 2.08333 16.6667H17.9167C18.6058 16.6667 19.1667 16.1058 19.1667 15.4167V4.58333C19.1667 3.89417 18.6058 3.33333 17.9167 3.33333H2.08333Z" fill="#383F43" stroke="#383F43" stroke-width="0.33"/>
<path d="M6.25008 9.99992C5.10175 9.99992 4.16675 9.06492 4.16675 7.91658C4.16675 6.76825 5.10175 5.83325 6.25008 5.83325C7.39841 5.83325 8.33341 6.76825 8.33341 7.91658C8.33341 9.06492 7.39841 9.99992 6.25008 9.99992ZM6.25008 6.66659C5.56091 6.66659 5.00008 7.22742 5.00008 7.91658C5.00008 8.60575 5.56091 9.16658 6.25008 9.16658C6.93925 9.16658 7.50008 8.60575 7.50008 7.91658C7.50008 7.22742 6.93925 6.66659 6.25008 6.66659Z" fill="#383F43" stroke="#383F43" stroke-width="0.33"/>
<path d="M9.58333 14.1666C9.35333 14.1666 9.16667 13.9799 9.16667 13.7499V12.9166C9.16667 12.2274 8.60583 11.6666 7.91667 11.6666H4.58333C3.89417 11.6666 3.33333 12.2274 3.33333 12.9166V13.7499C3.33333 13.9799 3.14667 14.1666 2.91667 14.1666C2.68667 14.1666 2.5 13.9799 2.5 13.7499V12.9166C2.5 11.7683 3.435 10.8333 4.58333 10.8333H7.91667C9.065 10.8333 10 11.7683 10 12.9166V13.7499C10 13.9799 9.81333 14.1666 9.58333 14.1666Z" fill="#383F43" stroke="#383F43" stroke-width="0.33"/>
<path d="M17.0834 7.50008H12.0834C11.8534 7.50008 11.6667 7.31341 11.6667 7.08341C11.6667 6.85341 11.8534 6.66675 12.0834 6.66675H17.0834C17.3134 6.66675 17.5001 6.85341 17.5001 7.08341C17.5001 7.31341 17.3134 7.50008 17.0834 7.50008Z" fill="#383F43" stroke="#383F43" stroke-width="0.33"/>
<path d="M17.0834 10.8333H12.0834C11.8534 10.8333 11.6667 10.6467 11.6667 10.4167C11.6667 10.1867 11.8534 10 12.0834 10H17.0834C17.3134 10 17.5001 10.1867 17.5001 10.4167C17.5001 10.6467 17.3134 10.8333 17.0834 10.8333Z" fill="#383F43" stroke="#383F43" stroke-width="0.33"/>
<path d="M17.0834 14.1666H12.0834C11.8534 14.1666 11.6667 13.9799 11.6667 13.7499C11.6667 13.5199 11.8534 13.3333 12.0834 13.3333H17.0834C17.3134 13.3333 17.5001 13.5199 17.5001 13.7499C17.5001 13.9799 17.3134 14.1666 17.0834 14.1666Z" fill="#383F43" stroke="#383F43" stroke-width="0.33"/>
</g>
<defs>
<clipPath id="clip0_67_1592">
<rect width="20" height="20" fill="white"/>
</clipPath>
</defs>
</svg>
